<?xml version="1.0" standalone="no"?>
<!DOCTYPE svg PUBLIC "-//W3C//DTD SVG 20010904//EN"
 "http://www.w3.org/TR/2001/REC-SVG-20010904/DTD/svg10.dtd">
<svg version="1.0" xmlns="http://www.w3.org/2000/svg"
 width="260.000000pt" height="260.000000pt" viewBox="0 0 260.000000 260.000000"
 preserveAspectRatio="xMidYMid meet">
<metadata>
Created by potrace 1.11, written by Peter Selinger 2001-2013
</metadata>
<g transform="translate(0.000000,260.000000) scale(0.100000,-0.100000)"
fill="#000000" stroke="none">
<path d="M265 1630 c-4 -6 -11 -7 -17 -4 -7 4 -8 2 -4 -4 5 -8 -1 -12 -14 -12
-12 0 -19 -3 -17 -7 3 -5 -1 -14 -9 -21 -12 -11 -14 -10 -14 5 0 20 -35 29
-45 12 -4 -5 -11 -7 -16 -4 -5 4 -9 3 -10 -2 0 -4 -2 -18 -3 -30 -2 -13 1 -23
5 -23 4 0 10 -7 13 -16 3 -8 2 -12 -4 -9 -5 3 -3 -7 5 -22 8 -15 16 -36 19
-45 3 -10 15 -18 26 -18 12 0 19 -4 15 -9 -3 -6 5 -8 19 -5 14 2 28 -1 32 -8
9 -14 12 -298 3 -293 -3 3 -4 -6 -2 -19 5 -26 49 -42 57 -22 3 7 5 7 5 -1 1
-7 8 -10 16 -8 50 16 48 14 34 32 -17 20 -17 16 1 38 13 17 13 18 0 10 -13 -8
-13 -7 -1 8 10 13 10 17 1 17 -9 0 -10 3 -1 13 8 10 7 17 -1 25 -14 14 -14 14
27 17 17 2 30 4 30 5 0 1 11 3 25 4 31 2 111 46 104 58 -3 4 0 8 5 8 6 0 11 9
11 21 0 11 4 18 8 15 4 -2 7 16 6 42 -3 46 13 102 28 102 5 0 7 3 7 8 -4 24 2
62 9 58 5 -3 9 1 9 9 0 8 -4 15 -9 15 -5 0 -7 4 -3 9 11 18 -24 41 -49 31 -17
-6 -28 -4 -39 7 -13 13 -37 16 -117 15 -56 0 -110 -4 -122 -8 -14 -4 -18 -2
-14 5 4 6 5 11 2 11 -3 0 -8 -5 -11 -10z m144 -234 c9 -6 12 -5 8 1 -4 6 6 10
24 11 16 0 27 -3 24 -8 -3 -5 -1 -11 5 -15 6 -4 5 -12 -5 -21 -8 -9 -13 -20
-10 -25 4 -5 -1 -9 -9 -9 -9 0 -16 -4 -16 -8 0 -16 -68 -12 -74 3 -3 8 0 15 7
16 9 0 9 2 0 6 -7 2 -13 9 -13 14 0 6 6 7 13 3 9 -5 9 -4 0 6 -9 9 -9 15 0 25
13 14 25 14 46 1z"/>
<path d="M1910 1542 c0 -6 -9 -14 -20 -17 -11 -4 -18 -11 -15 -16 4 -5 2 -9
-4 -9 -6 0 -8 -8 -4 -17 11 -32 34 -51 58 -49 25 3 59 25 50 34 -3 3 1 12 8
20 9 13 9 14 0 8 -8 -4 -13 -2 -13 4 0 6 -7 18 -15 26 -8 9 -15 12 -15 8 0 -3
-7 -1 -15 6 -9 8 -15 8 -15 2z"/>
<path d="M1690 1535 c0 -6 -39 -10 -97 -10 l-97 0 -7 -27 c-5 -19 -3 -28 4
-28 7 0 6 -4 -3 -10 -13 -8 -12 -10 3 -10 10 0 15 -5 11 -11 -8 -13 38 -8 48
5 4 6 14 4 24 -5 9 -8 19 -13 21 -11 15 11 18 -20 17 -178 l-1 -180 31 -1 c70
-3 96 11 74 39 -9 10 -8 16 3 23 8 5 9 9 3 9 -14 0 -14 30 0 30 7 0 7 3 1 8
-13 9 -15 52 -2 52 5 0 3 8 -4 17 -12 15 -12 16 1 8 13 -8 13 -7 1 8 -10 13
-11 20 -2 31 8 10 9 16 1 21 -6 3 -7 12 -3 18 10 17 11 47 1 53 -5 3 -3 13 4
22 11 13 11 14 0 8 -12 -7 -12 -4 -2 13 8 16 15 19 24 12 7 -6 17 -6 26 -1 8
5 21 5 30 0 24 -13 42 3 44 38 1 18 -2 28 -8 25 -5 -4 -7 1 -3 10 5 13 -2 15
-44 13 -29 -1 -49 2 -49 9 0 5 -4 4 -9 -3 -4 -8 -12 -14 -16 -14 -4 0 -12 6
-16 14 -5 7 -9 9 -9 3z"/>
<path d="M2465 1490 c-4 -6 -11 -8 -16 -5 -5 4 -15 3 -21 -2 -12 -7 -17 -9
-36 -12 -5 0 -8 -14 -7 -31 2 -26 -4 -33 -25 -32 -3 0 -11 -6 -18 -14 -8 -9
-9 -14 -2 -14 7 0 8 -6 1 -17 -9 -18 10 -48 23 -36 3 4 6 1 6 -6 0 -7 4 -10 9
-6 5 3 13 0 17 -6 5 -8 3 -9 -6 -4 -10 6 -11 2 -6 -19 4 -18 2 -26 -6 -26 -9
0 -8 -3 2 -10 13 -9 13 -10 0 -10 -13 0 -13 -1 0 -10 8 -5 11 -10 5 -10 -5 0
-3 -5 5 -10 9 -6 11 -10 3 -10 -7 0 -10 -7 -6 -17 4 -11 3 -14 -5 -9 -7 4 -5
-4 3 -20 8 -15 13 -30 11 -33 -8 -14 42 -46 74 -49 19 -2 37 -4 40 -5 15 -3
49 16 44 24 -3 6 0 16 6 24 9 11 9 15 1 15 -6 0 -11 6 -11 14 0 9 -7 12 -18 9
-30 -8 -46 24 -47 93 0 46 4 69 14 77 12 10 13 9 6 -3 -6 -12 -5 -13 5 -3 10
9 17 10 27 1 11 -8 12 -7 7 6 -4 9 -3 16 2 15 20 -3 24 2 14 21 -8 14 -8 20 0
20 7 0 6 5 -2 14 -9 10 -15 11 -20 2 -6 -8 -8 -7 -8 2 0 10 -5 10 -21 1 -15
-8 -19 -8 -15 0 4 6 2 11 -5 11 -8 0 -7 5 2 17 9 10 9 14 2 10 -9 -6 -11 1 -8
23 4 30 -8 49 -20 30z"/>
<path d="M644 1400 c-12 -20 -12 -60 0 -60 6 0 5 -5 -2 -12 -7 -7 -8 -17 -2
-28 5 -9 5 -22 0 -30 -5 -8 -5 -21 0 -30 5 -9 5 -22 0 -30 -5 -8 -5 -21 0 -30
5 -9 5 -22 0 -30 -5 -8 -4 -22 1 -32 6 -12 6 -18 -1 -18 -6 0 -6 -7 2 -20 9
-14 14 -16 20 -7 4 7 8 8 8 2 0 -13 52 -13 65 0 6 5 10 25 8 43 -2 18 1 31 5
28 4 -2 8 4 8 14 0 10 -3 17 -7 14 -4 -2 -9 3 -13 11 -3 8 -2 17 3 19 4 3 7
19 6 36 -1 17 3 34 8 37 6 4 7 1 2 -7 -5 -9 -4 -11 3 -6 7 4 12 13 12 20 0 8
11 16 25 18 14 3 25 1 25 -5 0 -12 14 0 16 14 1 5 2 10 4 12 8 10 4 66 -7 76
-10 9 -13 9 -13 -1 0 -9 -3 -9 -10 2 -7 12 -10 12 -10 1 0 -8 -6 -11 -16 -7
-8 3 -12 2 -9 -3 3 -5 -4 -12 -15 -16 -11 -3 -20 -11 -20 -16 0 -6 -5 -7 -10
-4 -6 4 -8 11 -5 16 7 10 -15 35 -30 34 -5 0 -15 -4 -22 -8 -6 -4 -13 -2 -15
5 -3 9 -7 8 -14 -2z"/>
<path d="M965 1400 c-4 -6 -13 -9 -21 -6 -8 3 -14 1 -14 -5 0 -6 -5 -7 -10 -4
-6 3 -13 -1 -16 -9 -3 -9 -11 -13 -18 -9 -6 4 -5 -1 2 -10 8 -9 10 -22 6 -28
-4 -7 -3 -9 4 -5 5 3 12 0 15 -6 3 -10 9 -11 26 0 11 6 23 12 26 12 4 0 3 -6
0 -12 -4 -7 1 -4 9 6 9 11 16 14 16 7 0 -7 5 -9 10 -6 18 11 49 -5 47 -25 -1
-19 -37 -25 -37 -5 0 5 -5 3 -10 -6 -5 -9 -19 -15 -32 -14 -13 1 -29 -4 -36
-12 -8 -7 -17 -11 -22 -8 -5 3 -11 -4 -15 -15 -3 -11 -11 -20 -16 -20 -6 0 -7
-4 -4 -10 3 -5 2 -10 -3 -10 -12 0 -10 -43 3 -52 6 -5 5 -8 -3 -8 -17 0 18
-49 36 -50 6 0 12 -5 12 -11 0 -6 7 -9 15 -5 8 3 15 2 15 -3 0 -11 62 0 85 15
25 18 36 18 29 0 -4 -10 6 -15 36 -18 22 -2 46 0 52 3 14 9 19 37 7 44 -4 3
-4 16 1 30 7 18 6 25 -3 25 -8 0 -7 4 3 10 12 8 12 10 1 10 -11 0 -11 3 -1 15
9 11 9 15 1 15 -8 0 -9 5 -2 17 5 10 5 26 0 40 -5 15 -5 23 2 23 6 0 3 7 -5
16 -9 8 -13 20 -10 26 4 7 2 8 -4 4 -7 -4 -12 -1 -12 7 0 15 -47 42 -69 38 -8
-1 -10 2 -5 11 6 10 4 10 -9 -1 -9 -7 -17 -9 -17 -4 0 5 -7 10 -15 10 -8 0
-15 -5 -15 -10 0 -5 -6 -4 -14 2 -10 9 -16 9 -21 1z m89 -186 c20 -52 -55 -96
-86 -51 -9 15 14 47 34 47 9 0 20 5 23 10 9 15 22 12 29 -6z"/>
<path d="M1380 1399 c0 -4 -8 -6 -17 -5 -21 4 -83 -24 -83 -36 0 -4 -7 -8 -16
-8 -8 0 -12 -4 -9 -10 3 -5 1 -10 -4 -10 -6 0 -11 -6 -11 -14 0 -8 -5 -16 -11
-18 -13 -4 -19 -88 -7 -88 5 0 4 -10 -3 -21 -8 -15 -8 -19 0 -15 6 4 11 0 11
-8 0 -9 5 -16 11 -16 5 0 7 -4 4 -10 -3 -5 -2 -10 4 -10 5 0 13 -9 16 -20 3
-11 15 -20 25 -20 10 0 22 -5 25 -11 4 -5 12 -8 18 -6 7 2 20 0 30 -5 12 -6
17 -5 17 4 0 9 3 9 10 -2 9 -13 11 -13 20 0 9 13 10 13 10 0 0 -12 2 -13 9 -1
5 7 14 10 20 7 18 -11 40 17 29 37 -5 10 -6 22 -3 27 6 10 -12 14 -53 10 -13
-1 -30 4 -39 12 -12 9 -15 10 -9 1 11 -20 -1 -15 -23 9 -11 11 -18 25 -15 30
3 4 1 8 -5 8 -10 0 -9 25 2 36 4 4 2 13 -4 21 -9 10 -8 13 5 13 10 0 14 5 11
10 -3 6 1 10 9 10 9 0 16 4 16 9 0 5 23 8 50 6 43 -3 50 -1 50 15 0 10 5 22
11 26 8 4 7 9 -2 15 -11 7 -11 9 1 9 9 0 4 6 -10 14 -16 8 -31 10 -42 4 -10
-5 -18 -5 -18 0 0 5 -7 9 -15 9 -8 0 -15 -4 -15 -8z"/>
<path d="M1874 1393 c2 -10 -2 -21 -7 -25 -7 -4 -7 -11 2 -21 8 -11 9 -17 1
-22 -8 -5 -8 -10 0 -20 8 -9 8 -15 0 -20 -6 -3 -7 -11 -4 -17 10 -16 11 -98 1
-98 -5 0 -5 -5 -1 -12 4 -7 7 -29 7 -50 0 -21 3 -41 8 -44 5 -3 9 0 9 7 0 8 4
8 15 -1 8 -7 15 -9 15 -4 0 5 5 2 10 -6 8 -13 10 -13 10 2 0 11 6 15 19 11 12
-3 20 2 24 16 3 12 0 21 -5 21 -7 0 -6 5 1 14 7 8 8 17 3 20 -9 5 -9 67 1 82
3 6 2 16 -3 24 -5 9 -5 19 2 27 6 7 6 13 1 13 -10 0 -10 80 1 98 4 7 4 13 -1
13 -29 4 -40 3 -51 -5 -8 -6 -16 -6 -20 0 -13 18 -40 15 -38 -3z"/>
<path d="M2195 1400 c-4 -6 -16 -8 -27 -4 -15 4 -18 3 -13 -7 6 -8 4 -11 -6
-7 -15 6 -91 -65 -98 -92 -10 -36 -6 -107 9 -134 17 -35 49 -65 68 -66 6 0 12
-4 12 -8 0 -4 15 -9 33 -11 74 -6 97 -6 97 1 0 5 3 7 8 6 4 0 15 2 25 7 13 5
15 11 6 21 -6 7 -8 18 -5 23 10 15 -15 25 -55 22 -23 -1 -42 4 -52 14 -9 9
-20 17 -24 18 -4 1 -7 5 -5 9 1 5 -3 8 -10 8 -6 0 -9 3 -6 6 4 3 2 19 -2 35
-5 18 -5 27 1 24 5 -4 9 0 9 8 0 20 44 41 89 41 22 1 42 4 45 7 14 14 14 52 1
66 -8 8 -15 11 -15 7 0 -3 -6 -2 -12 2 -16 11 -39 11 -57 0 -10 -6 -12 -5 -7
2 4 7 5 12 2 12 -3 0 -8 -5 -11 -10z"/>
</g>
</svg>
